<svg width="32" height="32" viewBox="0 0 32 32" fill="none" xmlns="http://www.w3.org/2000/svg">
<g id="Group 159">
<rect id="Rectangle 287" x="0.5" y="0.5" width="31" height="31" rx="3.5" stroke="#01A7CC"/>
<g id="coolicon">
<path d="M9 10.4V20.2L12.84 17.68C13.1167 17.4977 13.4537 17.3994 13.8 17.4H20.2C21.0837 17.4 21.8 16.7732 21.8 16V10.4C21.8 9.6268 21.0837 9 20.2 9H10.6C9.71634 9 9 9.6268 9 10.4ZM10.6 17.4V10.4H20.2V16H13.2672C12.9209 15.9992 12.5837 16.0975 12.3072 16.28L10.6 17.4Z" fill="#01A7CC"/>
<path d="M25 23V13.9C25 13.1268 24.2837 12.5 23.4 12.5V20.2L21.6928 19.08C21.4163 18.8975 21.0791 18.7992 20.7328 18.8H13C13 19.5732 13.7163 20.2 14.6 20.2H20.2C20.5463 20.1994 20.8833 20.2977 21.16 20.48L25 23Z" fill="#01A7CC"/>
</g>
</g>
</svg>
