<svg width="40" height="40" viewBox="0 0 40 40" fill="none" xmlns="http://www.w3.org/2000/svg">
<circle cx="20" cy="20" r="20" fill="#01A7CC" fill-opacity="0.16"/>
<g clip-path="url(#clip0_1_695)">
<path d="M26.9999 28H13.9999C10.8743 28.0019 8.27081 25.6039 8.01628 22.4886C7.76175 19.3734 9.94144 16.5845 13.0259 16.079C14.4456 13.5619 17.11 12.0035 19.9999 11.9999C21.8019 11.9931 23.5524 12.6013 24.9619 13.724C26.346 14.8219 27.33 16.345 27.7619 18.058C30.3458 18.455 32.1877 20.7755 31.9879 23.3821C31.7882 25.9887 29.6141 28.0014 26.9999 28ZM19.9999 14C17.8316 14.0026 15.8326 15.1721 14.7679 17.061L14.2999 17.9L13.3509 18.055C11.3012 18.3984 9.85592 20.2543 10.0251 22.3257C10.1943 24.3971 11.9216 25.9938 13.9999 26H26.9999C28.5685 26.0016 29.8735 24.7946 29.9941 23.2307C30.1147 21.6667 29.0102 20.2739 27.4599 20.035L26.1439 19.835L25.8219 18.543C25.1572 15.8698 22.7545 13.995 19.9999 14ZM21.4499 24H18.5499V21H15.9999L19.9999 17L23.9999 21H21.4499V24Z" fill="#01A7CC"/>
</g>
<defs>
<clipPath id="clip0_1_695">
<rect width="24" height="24" fill="white" transform="translate(8 8)"/>
</clipPath>
</defs>
</svg>
